# xmcd CD database file
#
# Track frame offsets:
#	150
#	13540
#	26690
#	40569
#	48512
#	62139
#	67954
#	79632
#	91834
#	106428
#	121591
#	136179
#	154404
#	169841
#	183683
#	197446
#	209029
#	223992
#	240699
#	245900
#	263239
#	277418
#	292460
#	301272
#
# Disc length: 4094 seconds
#
# Revision: 1
# Processed by: cddbd v1.5.2PL0 Copyright (c) Steve Scherf et al.
# Submitted via: CDex 1.70beta2
#
DISCID=6f0ffc18
DTITLE=Lilian Jackson Braun - The Cat Who Tailed a Thief
DYEAR=1997
DGENRE=Audiobook
TTITLE0=601
TTITLE1=602
TTITLE2=603
TTITLE3=604
TTITLE4=605
TTITLE5=606
TTITLE6=607
TTITLE7=608
TTITLE8=609
TTITLE9=610
TTITLE10=611
TTITLE11=612
TTITLE12=613
TTITLE13=614
TTITLE14=615
TTITLE15=616
TTITLE16=617
TTITLE17=618
TTITLE18=619
TTITLE19=620
TTITLE20=621
TTITLE21=622
TTITLE22=623
TTITLE23=624
EXTD=The Cat Who Tailed a Thief 1997\nby Lilian Jackson Braun - \nread by George Guidall -  6 CDs YEAR: 1997
EXTT0=
EXTT1=
EXTT2=
EXTT3=
EXTT4=
EXTT5=
EXTT6=
EXTT7=
EXTT8=
EXTT9=
EXTT10=
EXTT11=
EXTT12=
EXTT13=
EXTT14=
EXTT15=
EXTT16=
EXTT17=
EXTT18=
EXTT19=
EXTT20=
EXTT21=
EXTT22=
EXTT23=
PLAYORDER=
